<?xml version="1.0" encoding="utf-8"?>
<!-- Generator: Adobe Illustrator 24.3.0, SVG Export Plug-In . SVG Version: 6.00 Build 0)  -->
<svg version="1.1" id="Layer_1" xmlns="http://www.w3.org/2000/svg" xmlns:xlink="http://www.w3.org/1999/xlink" x="0px" y="0px"
	 viewBox="0 0 228.8 38.9" style="enable-background:new 0 0 228.8 38.9;" xml:space="preserve">
<style type="text/css">
	.st0{fill:url(#SVGID_1_);}
	.st1{fill:url(#SVGID_2_);}
	.st2{fill:url(#SVGID_3_);}
	.st3{fill:url(#SVGID_4_);}
	.st4{fill:url(#SVGID_5_);}
	.st5{fill:url(#SVGID_6_);}
	.st6{fill:url(#SVGID_7_);}
</style>
<path d="M228.8,14.1V4h-4V0h-26.6v4.1h-1.7V4h-4V0h-14.2v8.1H176v-4h-0.1V4h-4V0h-11.8h-2.5h-28.2v10.1h4v4h4.2v10.6h-5.8V12.2h-4
	v-4h-0.1V8.1h-4v-4h-0.1c0,0,0-0.1,0-0.1h-4c0-0.2,0-4,0-4H95.4h-2.5H81.2v8.1h-2.2v-4h-0.1V4h-4V0H63.1h-2.5H28.2v24.8h-10V4h-4V0
	H0v34.9h4v4h28.2h2.5h29.8h2.5h11.7V26.6H81v4h0.1v4.3h4v4h11.7h2.5h24.1v-4.1h4.1v-4.1h1.7v4.3h4v4h28.2h2.5h11.7V26.6h2.2v4h0.1
	v4.3h4v4h14.2v-8.1h1.5v4h0.1v0.1h4v4h26.6V16.4h-4v-2.3H228.8z M161.6,28.7h-1V14.1h1V28.7z M155.9,27.7h1.2v1h-1.2V27.7z
	 M157.6,24.7h-1.7V14.1h1.7V24.7z M172.9,11.1L172.9,11.1l0-4h0V11.1z M213.5,27.7v-1.2h1v2.2h-2.2v-1H213.5z M209.3,31.7
	L209.3,31.7l0-4h0V31.7z M205.1,15.2L205.1,15.2l0,5.4h0V15.2z M205.1,27.6v-4h0L205.1,27.6L205.1,27.6z M210.4,24.6h-2.1v-2.1h2.1
	V24.6z M210.4,19.5h-1v-1.2h1V19.5z M209.2,12.4v-1.3h0L209.2,12.4L209.2,12.4z M225.8,7v4.1h0L225.8,7L225.8,7z M197,11.2V7.1h4.1
	V3h20.6h0v1h-19.6v4.1H198v4.1h-1.5v-1H197z M189.5,3v1h-7.2v8.2h-1V3H189.5z M168.9,3v1h-4.8h-2.5h-1V3H168.9z M132.4,7.1V3h24.8v1
	h-23.8v3.1H132.4z M64.5,28.7h-1V14.1h1V28.7z M56,16.4h-9.5v-1H56V16.4z M46.5,27.7h13.6v1H46.5V27.7z M60.5,16.4H59v-2.3h1.5V16.4
	z M111.2,27.7h1.2v-4.1h4.1v-5.4h1v6.4h-4.1v4.1h-2.2V27.7z M113.5,20.6h-2.4v-6.4h2.2v4h0.1V20.6z M116.5,3v1H99.4h-2.5h-1V3H116.5
	z M92.4,3v1h-7.2v8.2h-1V3H92.4z M71.8,3v1h-4.7h-2.5h-1V3H71.8z M60.1,3v1H32.2v24.8h-1V3H60.1z M27.8,27.7v1h-9.5v-1H27.8z
	 M3,31.9V3h8.2v1H4v27.9H3z M84.2,31.9v-1.3h1v1.3H84.2z M132.4,31.9v-4.1h8.2V14.1h1v14.6h-8.2v3.1H132.4z M181.2,31.9v-1.3h1v1.3
	H181.2z M225.8,19.4v16.5h0L225.8,19.4L225.8,19.4z M212.2,16.4v-1h9.5v1H212.2z"/>
<linearGradient id="SVGID_1_" gradientUnits="userSpaceOnUse" x1="15.375" y1="6.8798" x2="15.375" y2="36.7298" gradientTransform="matrix(1 0 0 -1 0 39.8898)">
	<stop  offset="0" style="stop-color:#FF9800"/>
	<stop  offset="1" style="stop-color:#FFC46E"/>
</linearGradient>
<path class="st0" d="M3,31.9V3h8.2v24.8h16.5v4.1L3,31.9z"/>
<linearGradient id="SVGID_2_" gradientUnits="userSpaceOnUse" x1="45.655" y1="6.8798" x2="45.655" y2="36.7298" gradientTransform="matrix(1 0 0 -1 0 39.8898)">
	<stop  offset="0" style="stop-color:#FF9800"/>
	<stop  offset="1" style="stop-color:#FFC46E"/>
</linearGradient>
<path class="st1" d="M31.2,31.9V3h28.9v4.1H39.5v8.3H56v4.1H39.5v8.2h20.6v4.1L31.2,31.9z"/>
<linearGradient id="SVGID_3_" gradientUnits="userSpaceOnUse" x1="77.99" y1="6.8798" x2="77.99" y2="36.7298" gradientTransform="matrix(1 0 0 -1 0 39.8898)">
	<stop  offset="0" style="stop-color:#FF9800"/>
	<stop  offset="1" style="stop-color:#FFC46E"/>
</linearGradient>
<path class="st2" d="M63.5,31.9V3h8.3v4.1h4.1v4.1h4.1v4.1h4.1V3h8.2v28.9h-8.2v-8.3h-4.1v-4.1h-4.1v-4.1h-4.1v16.5L63.5,31.9z"/>
<linearGradient id="SVGID_4_" gradientUnits="userSpaceOnUse" x1="110.335" y1="6.8798" x2="110.335" y2="36.7298" gradientTransform="matrix(1 0 0 -1 0 39.8898)">
	<stop  offset="0" style="stop-color:#FF9800"/>
	<stop  offset="1" style="stop-color:#FFC46E"/>
</linearGradient>
<path class="st3" d="M95.9,31.9V3h20.6v4.1h4.1v4.1h4.1v12.4h-4.1v4.1h-4.1v4.1L95.9,31.9z M104.2,27.8h8.2v-4.1h4.1V11.2h-4.1V7.1
	h-8.2V27.8z"/>
<linearGradient id="SVGID_5_" gradientUnits="userSpaceOnUse" x1="144.735" y1="6.8798" x2="144.735" y2="36.7298" gradientTransform="matrix(1 0 0 -1 0 39.8898)">
	<stop  offset="0" style="stop-color:#FF9800"/>
	<stop  offset="1" style="stop-color:#FFC46E"/>
</linearGradient>
<path class="st4" d="M132.4,31.9v-4.1h8.2V7.1h-8.2V3h24.8v4.1h-8.2v20.6h8.2v4.1L132.4,31.9z"/>
<linearGradient id="SVGID_6_" gradientUnits="userSpaceOnUse" x1="175.035" y1="6.8798" x2="175.035" y2="36.7298" gradientTransform="matrix(1 0 0 -1 0 39.8898)">
	<stop  offset="0" style="stop-color:#FF9800"/>
	<stop  offset="1" style="stop-color:#FFC46E"/>
</linearGradient>
<path class="st5" d="M160.6,31.9V3h8.2v4.1h4.2v4.1h4.1v4.1h4.1V3h8.2v28.9h-8.3v-8.3h-4.1v-4.1H173v-4.1h-4.1v16.5L160.6,31.9z"/>
<linearGradient id="SVGID_7_" gradientUnits="userSpaceOnUse" x1="207.315" y1="6.8798" x2="207.315" y2="36.7298" gradientTransform="matrix(1 0 0 -1 0 39.8898)">
	<stop  offset="0" style="stop-color:#FF9800"/>
	<stop  offset="1" style="stop-color:#FFC46E"/>
</linearGradient>
<path class="st6" d="M201.2,31.9v-4.1H197v-4.1h-4.1V11.2h4.1V7.1h4.1V3h20.6v4.1h-16.5v4.1h-4.1v12.4h4.1v4.1h8.2v-8.2h-4.1v-4.1
	h12.4v16.5L201.2,31.9z"/>
</svg>
