<svg xmlns="http://www.w3.org/2000/svg" xmlns:xlink="http://www.w3.org/1999/xlink" viewBox="0 0 232.92 38.88"><defs><style>.cls-1{fill:url(#linear-gradient);}</style><linearGradient id="linear-gradient" x1="114.46" y1="33.01" x2="114.46" y2="3.16" gradientUnits="userSpaceOnUse"><stop offset="0" stop-color="#96c"/><stop offset="1" stop-color="#d0a2ff"/></linearGradient></defs><g id="Layer_2" data-name="Layer 2"><g id="Layer_1-2" data-name="Layer 1"><path d="M31.75,7v4.12h4.13V23.5H27.62v4.12h4.13v4.13h4.13v4.13H23.5V31.75H19.38V27.62H15.25v8.26H7V7H31.75M15.25,23.5H23.5V19.38h4.12V11.12H15.25V23.5M34.75,4H4V38.88H18.25V34.75H20.5v4.13H38.88V28.75H34.75V26.5h4.13V8.12H34.75V4ZM18.25,14.12h6.37v2.26H20.5V20.5H18.25V14.12Z"/><path d="M68.22,7v4.12H47.59v8.26h16.5V23.5H47.59v8.25H68.22v4.13H39.34V7H68.22m3-3H36.34V38.88H71.22V28.75H50.59V26.5h16.5V16.38H50.59V14.12H71.22V4Z"/><path d="M100.55,7V35.88H92.3V27.62H88.18V23.5H84.05V19.38H79.93v16.5H71.68V7h8.25v4.12h4.12v4.13h4.13v4.13H92.3V7h8.25m3-3H89.3v8.25H87.05V8.12H82.93V4H68.68V38.88H82.93V26.5h2.25v4.12H89.3v8.26h14.25V4Z"/><path d="M132.9,7v4.12h-8.25V35.88H116.4V11.12h-8.25V7H132.9m3-3H105.15V14.12h8.25V38.88h14.25V14.12h8.25V4Z"/><path d="M165.24,7v4.12H157V31.75h8.25v4.13H140.49V31.75h8.25V11.12h-8.25V7h24.75m3-3H137.49V14.12h8.25V28.75h-8.25V38.88h30.75V28.75H160V14.12h8.25V4Z"/><path d="M197.57,7V35.88h-8.25V27.62H185.2V23.5h-4.13V19.38H177v16.5H168.7V7H177v4.12h4.12v4.13h4.13v4.13h4.12V7h8.25m3-3H186.32v8.25h-2.25V8.12H180V4H165.7V38.88H180V26.5h2.25v4.12h4.12v8.26h14.25V4Z"/><path d="M229.92,7v4.12h-16.5v4.13h-4.13V27.62h4.13v4.13h8.25V23.5h-4.13V19.38h12.38v16.5H209.29V31.75h-4.12V27.62H201V15.25h4.13V11.12h4.12V7h20.63m3-3H206.29V8.12h-4.12v4.13H198V30.62h4.13v4.13h4.12v4.13h26.63V16.38h-16.5V14.12h16.5V4ZM212.29,18.25h2.25v6.37h-2.25V18.25Zm4.13,8.25h2.25v2.25h-2.25V26.5Z"/><path d="M7,35.88V7H31.75v4.12h4.13V23.5H27.62v4.12h4.13v4.13h4.13v4.13H23.5V31.75H19.38V27.62H15.25v8.26ZM15.25,23.5H23.5V19.38h4.12V11.12H15.25Z"/><path d="M39.34,35.88V7H68.22v4.12H47.59v8.26h16.5V23.5H47.59v8.25H68.22v4.13Z"/><path d="M71.68,35.88V7h8.25v4.12h4.12v4.13h4.13v4.13H92.3V7h8.25V35.88H92.3V27.62H88.18V23.5H84.05V19.38H79.93v16.5Z"/><path d="M116.4,35.88V11.12h-8.25V7H132.9v4.12h-8.25V35.88Z"/><path d="M140.49,35.88V31.75h8.25V11.12h-8.25V7h24.75v4.12H157V31.75h8.25v4.13Z"/><path d="M168.7,35.88V7H177v4.12h4.12v4.13h4.13v4.13h4.12V7h8.25V35.88h-8.25V27.62H185.2V23.5h-4.13V19.38H177v16.5Z"/><path d="M209.29,35.88V31.75h-4.12V27.62H201V15.25h4.13V11.12h4.12V7h20.63v4.12h-16.5v4.13h-4.13V27.62h4.13v4.13h8.25V23.5h-4.13V19.38h12.38v16.5Z"/><path d="M27.75,3V7.12h4.13V19.5H23.62v4.12h4.13v4.13h4.13v4.13H19.5V27.75H15.38V23.62H11.25v8.26H3V3H27.75M11.25,19.5H19.5V15.38h4.12V7.12H11.25V19.5M30.75,0H0V34.88H14.25V30.75H16.5v4.13H34.88V24.75H30.75V22.5h4.13V4.12H30.75V0ZM14.25,10.12h6.37v2.26H16.5V16.5H14.25V10.12Z"/><path d="M64.22,3V7.12H43.59v8.26h16.5V19.5H43.59v8.25H64.22v4.13H35.34V3H64.22m3-3H32.34V34.88H67.22V24.75H46.59V22.5h16.5V12.38H46.59V10.12H67.22V0Z"/><path d="M96.55,3V31.88H88.3V23.62H84.18V19.5H80.05V15.38H75.93v16.5H67.68V3h8.25V7.12h4.12v4.13h4.13v4.13H88.3V3h8.25m3-3H85.3V8.25H83.05V4.12H78.93V0H64.68V34.88H78.93V22.5h2.25v4.12H85.3v8.26H99.55V0Z"/><path d="M128.9,3V7.12h-8.25V31.88H112.4V7.12h-8.25V3H128.9m3-3H101.15V10.12h8.25V34.88h14.25V10.12h8.25V0Z"/><path d="M161.24,3V7.12H153V27.75h8.25v4.13H136.49V27.75h8.25V7.12h-8.25V3h24.75m3-3H133.49V10.12h8.25V24.75h-8.25V34.88h30.75V24.75H156V10.12h8.25V0Z"/><path d="M193.57,3V31.88h-8.25V23.62H181.2V19.5h-4.13V15.38H173v16.5H164.7V3H173V7.12h4.12v4.13h4.13v4.13h4.12V3h8.25m3-3H182.32V8.25h-2.25V4.12H176V0H161.7V34.88H176V22.5h2.25v4.12h4.12v8.26h14.25V0Z"/><path d="M225.92,3V7.12h-16.5v4.13h-4.13V23.62h4.13v4.13h8.25V19.5h-4.13V15.38h12.38v16.5H205.29V27.75h-4.12V23.62H197V11.25h4.13V7.12h4.12V3h20.63m3-3H202.29V4.12h-4.12V8.25H194V26.62h4.13v4.13h4.12v4.13h26.63V12.38h-16.5V10.12h16.5V0ZM208.29,14.25h2.25v6.37h-2.25V14.25Zm4.13,8.25h2.25v2.25h-2.25V22.5Z"/><path class="cls-1" d="M3,31.88V3H27.75V7.12h4.13V19.5H23.62v4.12h4.13v4.13h4.13v4.13H19.5V27.75H15.38V23.62H11.25v8.26ZM11.25,19.5H19.5V15.38h4.12V7.12H11.25Z"/><path class="cls-1" d="M35.34,31.88V3H64.22V7.12H43.59v8.26h16.5V19.5H43.59v8.25H64.22v4.13Z"/><path class="cls-1" d="M67.68,31.88V3h8.25V7.12h4.12v4.13h4.13v4.13H88.3V3h8.25V31.88H88.3V23.62H84.18V19.5H80.05V15.38H75.93v16.5Z"/><path class="cls-1" d="M112.4,31.88V7.12h-8.25V3H128.9V7.12h-8.25V31.88Z"/><path class="cls-1" d="M136.49,31.88V27.75h8.25V7.12h-8.25V3h24.75V7.12H153V27.75h8.25v4.13Z"/><path class="cls-1" d="M164.7,31.88V3H173V7.12h4.12v4.13h4.13v4.13h4.12V3h8.25V31.88h-8.25V23.62H181.2V19.5h-4.13V15.38H173v16.5Z"/><path class="cls-1" d="M205.29,31.88V27.75h-4.12V23.62H197V11.25h4.13V7.12h4.12V3h20.63V7.12h-16.5v4.13h-4.13V23.62h4.13v4.13h8.25V19.5h-4.13V15.38h12.38v16.5Z"/></g></g></svg>