<!DOCTYPE svg PUBLIC "-//W3C//DTD SVG 1.1//EN" "http://www.w3.org/Graphics/SVG/1.1/DTD/svg11.dtd"> <svg width="521px" height="521px" version="1.1" baseProfile="full" xmlns="http://www.w3.org/2000/svg" xmlns:xlink="http://www.w3.org/1999/xlink" xmlns:ev="http://www.w3.org/2001/xml-events"><polygon fill="rgb(228,118,27)" stroke="rgb(228,118,27)" points="293.7443904876709,285.8139756023884 276.9492073059082,273.52817007899284 257.07188415527344,219.67310955375433"></polygon><polygon fill="rgb(246,133,27)" stroke="rgb(246,133,27)" points="261.74498748779297,200.61012102849782 257.07188415527344,219.67310955375433 257.3229789733887,172.9455099105835"></polygon><polygon fill="rgb(246,133,27)" stroke="rgb(246,133,27)" points="259.21309661865234,244.58694204688072 257.07188415527344,219.67310955375433 261.74498748779297,200.61012102849782"></polygon><polygon fill="rgb(118,61,22)" stroke="rgb(118,61,22)" points="257.3229789733887,172.9455099105835 245.86677932739258,157.90943691134453 250.61028671264648,154.15062771737576"></polygon><polygon fill="rgb(118,61,22)" stroke="rgb(118,61,22)" points="250.61028671264648,154.15062771737576 292.758207321167,152.3353469222784 257.3229789733887,172.9455099105835"></polygon><polygon fill="rgb(118,61,22)" stroke="rgb(118,61,22)" points="250.61028671264648,154.15062771737576 242.6924285888672,145.97194510698318 248.48491287231445,140.82408291101456"></polygon><polygon fill="rgb(118,61,22)" stroke="rgb(118,61,22)" points="250.61028671264648,154.15062771737576 248.48491287231445,140.82408291101456 292.758207321167,152.3353469222784"></polygon><polygon fill="rgb(118,61,22)" stroke="rgb(118,61,22)" points="240.49896240234375,134.0137374997139 245.63146591186523,129.58600002527237 248.48491287231445,140.82408291101456"></polygon><polygon fill="rgb(118,61,22)" stroke="rgb(118,61,22)" points="257.3229789733887,172.9455099105835 292.758207321167,152.3353469222784 299.83834648132324,165.32761292159557"></polygon><polygon fill="rgb(118,61,22)" stroke="rgb(118,61,22)" points="292.758207321167,152.3353469222784 248.48491287231445,140.82408291101456 245.63146591186523,129.58600002527237"></polygon><polygon fill="rgb(246,133,27)" stroke="rgb(246,133,27)" points="257.3229789733887,172.9455099105835 299.83834648132324,165.32761292159557 261.74498748779297,200.61012102849782"></polygon><polygon fill="rgb(118,61,22)" stroke="rgb(118,61,22)" points="245.63146591186523,129.58600002527237 226.04677963256836,88.88769686222076 270.8477897644043,102.46431693434715"></polygon><polygon fill="rgb(118,61,22)" stroke="rgb(118,61,22)" points="270.8477897644043,102.46431693434715 292.758207321167,152.3353469222784 245.63146591186523,129.58600002527237"></polygon><polygon fill="rgb(118,61,22)" stroke="rgb(118,61,22)" points="299.83834648132324,165.32761292159557 292.758207321167,152.3353469222784 270.8477897644043,102.46431693434715"></polygon><polygon fill="rgb(205,97,22)" stroke="rgb(205,97,22)" points="293.7443904876709,285.8139756023884 259.21309661865234,244.58694204688072 273.0424346923828,257.5725004673004"></polygon><polygon fill="rgb(246,133,27)" stroke="rgb(246,133,27)" points="261.74498748779297,200.61012102849782 273.0424346923828,257.5725004673004 259.21309661865234,244.58694204688072"></polygon><polygon fill="rgb(118,61,22)" stroke="rgb(118,61,22)" points="270.8477897644043,102.46431693434715 226.04677963256836,88.88769686222076 218.54816436767578,53.27810347080231"></polygon><polygon fill="rgb(192,173,158)" stroke="rgb(192,173,158)" points="394.8685290813446,301.66801738739014 409.6090564727783,291.5916444659233 358.48441314697266,335.3370150923729"></polygon><polygon fill="rgb(118,61,22)" stroke="rgb(118,61,22)" points="270.8477897644043,102.46431693434715 317.8227081298828,141.69020867347717 299.83834648132324,165.32761292159557"></polygon><polygon fill="rgb(228,118,27)" stroke="rgb(228,118,27)" points="299.83834648132324,165.32761292159557 317.8227081298828,141.69020867347717 295.6681022644043,221.9980299398303"></polygon><polygon fill="rgb(228,118,27)" stroke="rgb(228,118,27)" points="295.6681022644043,221.9980299398303 261.74498748779297,200.61012102849782 299.83834648132324,165.32761292159557"></polygon><polygon fill="rgb(228,117,31)" stroke="rgb(228,117,31)" points="261.74498748779297,200.61012102849782 273.77326583862305,233.10851611196995 273.0424346923828,257.5725004673004"></polygon><polygon fill="rgb(205,97,22)" stroke="rgb(205,97,22)" points="273.77326583862305,233.10851611196995 261.74498748779297,200.61012102849782 295.6681022644043,221.9980299398303"></polygon><polygon fill="rgb(226,118,27)" stroke="rgb(226,118,27)" points="467.28825187683105,135.16121980547905 401.9688663482666,79.5292187333107 433.07644271850586,86.20876932144165"></polygon><polygon fill="rgb(118,61,22)" stroke="rgb(118,61,22)" points="218.54816436767578,53.27810347080231 317.8227081298828,141.69020867347717 270.8477897644043,102.46431693434715"></polygon><polygon fill="rgb(246,133,27)" stroke="rgb(246,133,27)" points="273.0424346923828,257.5725004673004 273.77326583862305,233.10851611196995 288.81639862060547,253.021529763937"></polygon><polygon fill="rgb(228,118,27)" stroke="rgb(228,118,27)" points="317.8227081298828,141.69020867347717 218.54816436767578,53.27810347080231 328.7769184112549,73.40777903795242"></polygon><polygon fill="rgb(35,52,71)" stroke="rgb(35,52,71)" points="288.81639862060547,253.021529763937 273.77326583862305,233.10851611196995 287.3844223022461,229.7627478837967"></polygon><polygon fill="rgb(205,97,22)" stroke="rgb(205,97,22)" points="295.6681022644043,221.9980299398303 287.3844223022461,229.7627478837967 273.77326583862305,233.10851611196995"></polygon><polygon fill="rgb(246,133,27)" stroke="rgb(246,133,27)" points="354.2434501647949,148.61278000473976 317.8227081298828,141.69020867347717 328.7769184112549,73.40777903795242"></polygon><polygon fill="rgb(246,133,27)" stroke="rgb(246,133,27)" points="328.7769184112549,73.40777903795242 401.9688663482666,79.5292187333107 354.2434501647949,148.61278000473976"></polygon><polygon fill="rgb(246,133,27)" stroke="rgb(246,133,27)" points="240.87534713745117,310.2282995581627 273.0424346923828,257.5725004673004 288.81639862060547,253.021529763937"></polygon><polygon fill="rgb(205,97,22)" stroke="rgb(205,97,22)" points="287.3844223022461,229.7627478837967 295.6681022644043,221.9980299398303 288.81639862060547,253.021529763937"></polygon><polygon fill="rgb(228,118,27)" stroke="rgb(228,118,27)" points="502.4726371765137,303.5942727327347 483.05002212524414,359.9282329082489 386.2845479249954,325.383264541626"></polygon><polygon fill="rgb(192,173,158)" stroke="rgb(192,173,158)" points="287.7026596069336,349.38948184251785 386.2845479249954,325.383264541626 358.48441314697266,335.3370150923729"></polygon><polygon fill="rgb(228,118,27)" stroke="rgb(228,118,27)" points="386.2845479249954,325.383264541626 398.3844938278198,297.86952316761017 502.4726371765137,303.5942727327347"></polygon><polygon fill="rgb(205,97,22)" stroke="rgb(205,97,22)" points="386.2845479249954,325.383264541626 354.7462377548218,289.8913117647171 398.3844938278198,297.86952316761017"></polygon><polygon fill="rgb(246,133,27)" stroke="rgb(246,133,27)" points="317.8227081298828,141.69020867347717 354.2434501647949,148.61278000473976 322.3605194091797,230.66399206221104"></polygon><polygon fill="rgb(246,133,27)" stroke="rgb(246,133,27)" points="322.3605194091797,230.66399206221104 295.6681022644043,221.9980299398303 317.8227081298828,141.69020867347717"></polygon><polygon fill="rgb(215,193,179)" stroke="rgb(215,193,179)" points="274.0334587097168,345.1089434027672 386.2845479249954,325.383264541626 287.7026596069336,349.38948184251785"></polygon><polygon fill="rgb(228,118,27)" stroke="rgb(228,118,27)" points="267.9013481140137,324.0013965368271 354.7462377548218,289.8913117647171 386.2845479249954,325.383264541626"></polygon><polygon fill="rgb(215,193,179)" stroke="rgb(215,193,179)" points="386.2845479249954,325.383264541626 274.0334587097168,345.1089434027672 267.9013481140137,324.0013965368271"></polygon><polygon fill="rgb(192,173,158)" stroke="rgb(192,173,158)" points="358.48441314697266,335.3370150923729 284.15563201904297,358.284407556057 287.7026596069336,349.38948184251785"></polygon><polygon fill="rgb(246,133,27)" stroke="rgb(246,133,27)" points="288.81639862060547,253.021529763937 243.85393524169922,308.87594252824783 240.87534713745117,310.2282995581627"></polygon><polygon fill="rgb(246,133,27)" stroke="rgb(246,133,27)" points="287.3730583190918,246.21743823587894 295.6681022644043,221.9980299398303 322.3605194091797,230.66399206221104"></polygon><polygon fill="rgb(226,118,27)" stroke="rgb(226,118,27)" points="485.0581741333008,215.7409826889634 481.04676818847656,207.92614249512553 467.28825187683105,135.16121980547905"></polygon><polygon fill="rgb(246,133,27)" stroke="rgb(246,133,27)" points="322.3605194091797,230.66399206221104 310.8980312347412,254.87672391533852 287.3730583190918,246.21743823587894"></polygon><polygon fill="rgb(226,118,27)" stroke="rgb(226,118,27)" points="467.28825187683105,135.16121980547905 490.4513626098633,201.06201839540154 485.5224723815918,190.90360606834292"></polygon><polygon fill="rgb(228,118,27)" stroke="rgb(228,118,27)" points="322.3605194091797,230.66399206221104 354.2434501647949,148.61278000473976 410.30413341522217,191.05196158215404"></polygon><polygon fill="rgb(246,133,27)" stroke="rgb(246,133,27)" points="287.3730583190918,246.21743823587894 310.8980312347412,254.87672391533852 263.94994354248047,319.01723247766495"></polygon><polygon fill="rgb(246,133,27)" stroke="rgb(246,133,27)" points="263.94994354248047,319.01723247766495 243.85393524169922,308.87594252824783 287.3730583190918,246.21743823587894"></polygon><polygon fill="rgb(205,97,22)" stroke="rgb(205,97,22)" points="337.61275005340576,246.9172178208828 323.4859085083008,266.1331325471401 322.3605194091797,230.66399206221104"></polygon><polygon fill="rgb(192,173,158)" stroke="rgb(192,173,158)" points="256.1598701477051,342.83638483285904 239.17837142944336,329.453501701355 265.91840744018555,344.0208685398102"></polygon><polygon fill="rgb(192,173,158)" stroke="rgb(192,173,158)" points="265.91840744018555,344.0208685398102 284.15563201904297,358.284407556057 256.1598701477051,342.83638483285904"></polygon><polygon fill="rgb(226,118,27)" stroke="rgb(226,118,27)" points="323.4859085083008,266.1331325471401 310.8980312347412,254.87672391533852 322.3605194091797,230.66399206221104"></polygon><polygon fill="rgb(246,133,27)" stroke="rgb(246,133,27)" points="354.7462377548218,289.8913117647171 323.4859085083008,266.1331325471401 358.9060363769531,263.3067983984947"></polygon><polygon fill="rgb(35,52,71)" stroke="rgb(35,52,71)" points="323.4859085083008,266.1331325471401 337.61275005340576,246.9172178208828 358.9060363769531,263.3067983984947"></polygon><polygon fill="rgb(228,118,27)" stroke="rgb(228,118,27)" points="410.30413341522217,191.05196158215404 391.68351459503174,240.52678108215332 322.3605194091797,230.66399206221104"></polygon><polygon fill="rgb(246,133,27)" stroke="rgb(246,133,27)" points="471.39755058288574,229.1577076613903 391.68351459503174,240.52678108215332 410.30413341522217,191.05196158215404"></polygon><polygon fill="rgb(118,61,22)" stroke="rgb(118,61,22)" points="471.39755058288574,229.1577076613903 410.30413341522217,191.05196158215404 444.1200828552246,184.83639708906412"></polygon><polygon fill="rgb(205,97,22)" stroke="rgb(205,97,22)" points="358.9060363769531,263.3067983984947 337.61275005340576,246.9172178208828 322.3605194091797,230.66399206221104"></polygon><polygon fill="rgb(118,61,22)" stroke="rgb(118,61,22)" points="410.30413341522217,191.05196158215404 354.2434501647949,148.61278000473976 419.2767391204834,123.22086349129677"></polygon><polygon fill="rgb(118,61,22)" stroke="rgb(118,61,22)" points="419.2767391204834,123.22086349129677 444.1200828552246,184.83639708906412 410.30413341522217,191.05196158215404"></polygon><polygon fill="rgb(228,117,31)" stroke="rgb(228,117,31)" points="310.8980312347412,254.87672391533852 323.4859085083008,266.1331325471401 263.94994354248047,319.01723247766495"></polygon><polygon fill="rgb(246,133,27)" stroke="rgb(246,133,27)" points="323.4859085083008,266.1331325471401 354.7462377548218,289.8913117647171 267.9013481140137,324.0013965368271"></polygon><polygon fill="rgb(246,133,27)" stroke="rgb(246,133,27)" points="267.9013481140137,324.0013965368271 263.94994354248047,319.01723247766495 323.4859085083008,266.1331325471401"></polygon><polygon fill="rgb(205,97,22)" stroke="rgb(205,97,22)" points="322.3605194091797,230.66399206221104 391.68351459503174,240.52678108215332 358.9060363769531,263.3067983984947"></polygon><polygon fill="rgb(118,61,22)" stroke="rgb(118,61,22)" points="481.04676818847656,207.92614249512553 471.39755058288574,229.1577076613903 444.1200828552246,184.83639708906412"></polygon><polygon fill="rgb(246,133,27)" stroke="rgb(246,133,27)" points="398.3844938278198,297.86952316761017 354.7462377548218,289.8913117647171 391.68351459503174,240.52678108215332"></polygon><polygon fill="rgb(228,117,31)" stroke="rgb(228,117,31)" points="391.68351459503174,240.52678108215332 354.7462377548218,289.8913117647171 358.9060363769531,263.3067983984947"></polygon><polygon fill="rgb(118,61,22)" stroke="rgb(118,61,22)" points="481.04676818847656,207.92614249512553 444.1200828552246,184.83639708906412 485.5224723815918,190.90360606834292"></polygon><polygon fill="rgb(246,133,27)" stroke="rgb(246,133,27)" points="391.68351459503174,240.52678108215332 502.4726371765137,303.5942727327347 398.3844938278198,297.86952316761017"></polygon><polygon fill="rgb(246,133,27)" stroke="rgb(246,133,27)" points="391.68351459503174,240.52678108215332 471.39755058288574,229.1577076613903 502.4726371765137,303.5942727327347"></polygon><polygon fill="rgb(118,61,22)" stroke="rgb(118,61,22)" points="490.4429397583008,176.80296973884106 444.1200828552246,184.83639708906412 419.2767391204834,123.22086349129677"></polygon><polygon fill="rgb(118,61,22)" stroke="rgb(118,61,22)" points="444.1200828552246,184.83639708906412 490.4429397583008,176.80296973884106 485.5224723815918,190.90360606834292"></polygon><polygon fill="rgb(192,173,158)" stroke="rgb(192,173,158)" points="274.0334587097168,345.1089434027672 287.7026596069336,349.38948184251785 284.15563201904297,358.284407556057"></polygon><polygon fill="rgb(192,173,158)" stroke="rgb(192,173,158)" points="284.15563201904297,358.284407556057 265.91840744018555,344.0208685398102 274.0334587097168,345.1089434027672"></polygon><polygon fill="rgb(22,22,22)" stroke="rgb(22,22,22)" points="265.91840744018555,344.0208685398102 239.17837142944336,329.453501701355 231.0084228515625,319.1823895573616"></polygon><polygon fill="rgb(22,22,22)" stroke="rgb(22,22,22)" points="240.87534713745117,310.2282995581627 243.85393524169922,308.87594252824783 232.67535781860352,317.18864327669144"></polygon><polygon fill="rgb(226,118,27)" stroke="rgb(226,118,27)" points="454.14428329467773,68.31594973802567 354.2434501647949,148.61278000473976 401.9688663482666,79.5292187333107"></polygon><polygon fill="rgb(22,22,22)" stroke="rgb(22,22,22)" points="232.67535781860352,317.18864327669144 243.85393524169922,308.87594252824783 263.94994354248047,319.01723247766495"></polygon><polygon fill="rgb(118,61,22)" stroke="rgb(118,61,22)" points="419.2767391204834,123.22086349129677 354.2434501647949,148.61278000473976 454.14428329467773,68.31594973802567"></polygon><polygon fill="rgb(22,22,22)" stroke="rgb(22,22,22)" points="267.9013481140137,324.0013965368271 274.0334587097168,345.1089434027672 265.91840744018555,344.0208685398102"></polygon><polygon fill="rgb(22,22,22)" stroke="rgb(22,22,22)" points="231.0084228515625,319.1823895573616 232.67535781860352,317.18864327669144 252.46775436401367,327.66553753614426"></polygon><polygon fill="rgb(22,22,22)" stroke="rgb(22,22,22)" points="252.46775436401367,327.66553753614426 255.06861877441406,332.0412512421608 231.0084228515625,319.1823895573616"></polygon><polygon fill="rgb(22,22,22)" stroke="rgb(22,22,22)" points="231.0084228515625,319.1823895573616 255.06861877441406,332.0412512421608 265.91840744018555,344.0208685398102"></polygon><polygon fill="rgb(118,61,22)" stroke="rgb(118,61,22)" points="471.39755058288574,229.1577076613903 481.04676818847656,207.92614249512553 485.0581741333008,215.7409826889634"></polygon><polygon fill="rgb(22,22,22)" stroke="rgb(22,22,22)" points="263.94994354248047,319.01723247766495 252.46775436401367,327.66553753614426 232.67535781860352,317.18864327669144"></polygon><polygon fill="rgb(22,22,22)" stroke="rgb(22,22,22)" points="265.91840744018555,344.0208685398102 255.06861877441406,332.0412512421608 267.9013481140137,324.0013965368271"></polygon><polygon fill="rgb(22,22,22)" stroke="rgb(22,22,22)" points="252.46775436401367,327.66553753614426 263.94994354248047,319.01723247766495 267.9013481140137,324.0013965368271"></polygon><polygon fill="rgb(22,22,22)" stroke="rgb(22,22,22)" points="267.9013481140137,324.0013965368271 255.06861877441406,332.0412512421608 252.46775436401367,327.66553753614426"></polygon><polygon fill="rgb(118,61,22)" stroke="rgb(118,61,22)" points="481.04676818847656,207.92614249512553 485.5224723815918,190.90360606834292 490.4513626098633,201.06201839540154"></polygon><polygon fill="rgb(118,61,22)" stroke="rgb(118,61,22)" points="494.9469451904297,185.49586448073387 485.5224723815918,190.90360606834292 490.4429397583008,176.80296973884106"></polygon><polygon fill="rgb(118,61,22)" stroke="rgb(118,61,22)" points="419.2767391204834,123.22086349129677 490.9163932800293,122.4590936601162 490.4429397583008,176.80296973884106"></polygon><polygon fill="rgb(118,61,22)" stroke="rgb(118,61,22)" points="454.14428329467773,68.31594973802567 490.9163932800293,122.4590936601162 419.2767391204834,123.22086349129677"></polygon></svg>